<svg width="700" height="700" viewBox="0 0 700 700" fill="none" xmlns="http://www.w3.org/2000/svg">
<g clip-path="url(#clip0_1207_89)">
<path d="M589 350C589 218.005 481.995 111 350 111C218.005 111 111 218.003 111 350C111 469.291 198.399 568.168 312.656 586.097V419.086H251.973V350H312.656V297.345C312.656 237.446 348.338 204.359 402.929 204.359C429.079 204.359 456.43 209.027 456.43 209.027V267.844H426.293C396.601 267.844 387.344 286.267 387.344 305.169V350H453.629L443.033 419.086H387.344V586.097C501.601 568.168 589 469.293 589 350Z" fill="white"/>
</g>
<defs>
<clipPath id="clip0_1207_89">
<rect width="478" height="478" fill="white" transform="translate(111 111)"/>
</clipPath>
</defs>
</svg>
